<?xml version="1.0" encoding="UTF-8"?>
<svg width="109px" height="89px" viewBox="0 0 109 89" version="1.1" xmlns="http://www.w3.org/2000/svg" xmlns:xlink="http://www.w3.org/1999/xlink">
    <!-- Generator: Sketch 42 (36781) - http://www.bohemiancoding.com/sketch -->
    <title>music_icon</title>
    <desc>Created with Sketch.</desc>
    <defs></defs>
    <g id="svg" stroke="none" stroke-width="1" fill="none" fill-rule="evenodd">
        <g id="music_icon">
            <g id="login-/-pink">
                <polygon id="Shape" points="0 0.5 24 0.5 24 24.5 0 24.5"></polygon>
                <g id="escape-copy" stroke-width="1" fill-rule="evenodd" transform="translate(9.500000, 12.500000) scale(-1, -1) translate(-9.500000, -12.500000) translate(-3.000000, 0.000000)">
                    <polygon id="Shape" points="0 0.5 25 0.5 25 24.5 0 24.5"></polygon>
                    <path d="M10.1251474,16.09 L11.5351474,17.5 L16.5351474,12.5 L11.5351474,7.5 L10.1251474,8.91 L12.7051474,11.5 L1.03514738,11.5 L1.03514738,13.5 L12.7051474,13.5 L10.1251474,16.09 Z M20,3.5 L8.03514738,3.5 C6.92514738,3.5 6.03514738,4.4 6.03514738,5.5 L6.03514738,9.5 L8.03514738,9.5 L8.03514738,5.5 L20,5.5 L20,19.5 L8.03514738,19.5 L8.03514738,15.5 L6.03514738,15.5 L6.03514738,19.5 C6.03514738,20.6 6.92514738,21.5 8.03514738,21.5 L20,21.5 C21.1,21.5 22,20.6 22,19.5 L22,5.5 C22,4.4 21.1,3.5 20,3.5 Z" id="Shape" fill="#FF0571" transform="translate(11.517574, 12.500000) scale(-1, 1) translate(-11.517574, -12.500000) "></path>
                </g>
            </g>
            <g id="Music-/-icon-2" transform="translate(67.538193, 38.001079) rotate(-33.000000) translate(-67.538193, -38.001079) translate(38.959560, 11.249168)" fill="#0074F2">
                <path d="M50.7067929,12.113424 C49.7369786,11.255904 48.1637786,11.255904 47.1939643,12.113424 C46.2233357,12.970944 46.2233357,14.360544 47.1939643,15.218064 C54.0706071,21.299184 54.0706071,31.191264 47.1939643,37.270224 C46.2233357,38.129184 46.2233357,39.519504 47.1939643,40.376304 C47.6784643,40.806144 48.3136071,41.019984 48.9495643,41.019984 C49.5855214,41.019984 50.21985,40.806144 50.7067929,40.376304 C59.5189929,32.584464 59.5189929,19.905984 50.7067929,12.113424 M38.77425,17.988624 C37.8036214,18.845424 37.8036214,20.237184 38.77425,21.095424 C41.9866071,23.934384 41.9866071,28.553904 38.77425,31.395024 C37.8036214,32.253984 37.8036214,33.642864 38.77425,34.501824 C39.25875,34.930224 39.8938929,35.144784 40.5314786,35.144784 C41.1674357,35.144784 41.8017643,34.930224 42.2870786,34.501824 C47.4349929,29.948544 47.4349929,22.540464 42.2870786,17.988624 C41.3172643,17.131104 39.7456929,17.131104 38.77425,17.988624 M31.4880214,0.113184 C31.27875,0.036864 31.0572643,0.000144 30.83985,0.000144 C30.3879214,0.000144 29.9457643,0.157824 29.6167929,0.454464 L10.9501071,17.271504 L1.71447857,17.271504 C0.768278571,17.271504 0.000407142857,17.949024 0.000407142857,18.786384 L0.000407142857,34.691904 C0.000407142857,35.528544 0.768278571,36.207504 1.71447857,36.207504 L10.9501071,36.207504 L29.6167929,53.023824 C29.9457643,53.320464 30.3879214,53.478144 30.83985,53.478144 C31.0572643,53.478144 31.27875,53.441424 31.4880214,53.365104 C32.1321214,53.132544 32.5522929,52.578144 32.5522929,51.963264 L32.5522929,1.515024 C32.5522929,0.900144 32.1321214,0.345744 31.4880214,0.113184" id="Fill-1"></path>
            </g>
        </g>
    </g>
</svg>