<?xml version="1.0" encoding="UTF-8"?>
<svg width="482px" height="112px" viewBox="0 0 482 112" version="1.1" xmlns="http://www.w3.org/2000/svg" xmlns:xlink="http://www.w3.org/1999/xlink">
    <!-- Generator: Sketch 42 (36781) - http://www.bohemiancoding.com/sketch -->
    <title>profit_icon</title>
    <desc>Created with Sketch.</desc>
    <defs>
        <filter x="-50%" y="-50%" width="200%" height="200%" filterUnits="objectBoundingBox" id="filter-1">
            <feGaussianBlur stdDeviation="0" in="SourceGraphic"></feGaussianBlur>
        </filter>
        <filter x="-50%" y="-50%" width="200%" height="200%" filterUnits="objectBoundingBox" id="filter-2">
            <feGaussianBlur stdDeviation="0" in="SourceGraphic"></feGaussianBlur>
        </filter>
        <filter x="-50%" y="-50%" width="200%" height="200%" filterUnits="objectBoundingBox" id="filter-3">
            <feGaussianBlur stdDeviation="0" in="SourceGraphic"></feGaussianBlur>
        </filter>
    </defs>
    <g id="svg" stroke="none" stroke-width="1" fill="none" fill-rule="evenodd">
        <g id="profit_icon">
            <g id="icon_1" transform="translate(4.000000, 1.000000)">
                <g id="Page-1" fill-rule="evenodd" transform="translate(8.296296, 22.211765)">
                    <path d="M15.224996,18.0316702 L16.2761375,18.0316702 L16.2761375,10.2545643 C16.2761375,8.78285965 17.4534159,7.58843269 18.9039911,7.58843269 L37.5179548,7.58843269 C38.969406,7.58843269 40.1458085,8.78285965 40.1458085,10.2545643 L40.1458085,18.0316702 L41.6629561,18.0316702 C41.807488,16.776811 41.9528959,15.5290614 42.0895443,14.2750908 C42.220937,12.3536986 43.1538251,7.23828073 39.5107439,3.93672108 C34.2401453,-1.31200337 22.6460548,-1.31200337 17.3780841,3.93672108 C13.734127,7.23828073 14.6696429,12.3536986 14.7975318,14.2750908 C14.9411878,15.5290614 15.0848438,16.776811 15.224996,18.0316702" id="Fill-7" fill="#0074F2"></path>
                    <path d="M36.423191,45.219814 C36.6632016,43.5046027 36.907592,38.3029799 37.1467267,36.5877686 C38.7286946,35.5559756 39.870935,34.0407242 39.9699175,32.7769778 C40.1573711,31.1844085 40.3413209,29.5936166 40.5208909,27.9957151 C40.7416306,28.2294459 41.0359502,28.3965235 41.3749433,28.4320719 C42.1282614,28.5085011 42.8018679,27.9521683 42.8771997,27.191432 L43.6278899,19.8302426 C43.7076014,19.067729 43.159256,18.3905316 42.4076898,18.3105476 C42.1238816,18.2803314 41.8514608,18.3434299 41.6123261,18.4758478 C41.775253,17.0699077 41.9364281,15.6772983 42.0897195,14.2758018 C42.2211122,12.3535209 43.1540003,7.2389917 39.5100431,3.93654334 C34.2394446,-1.31218111 22.64623,-1.31218111 17.3773833,3.93654334 C13.7343022,7.2389917 14.6698181,12.3535209 14.797707,14.2758018 C14.958006,15.6772983 15.120057,17.0699077 15.2751004,18.4758478 C15.0438493,18.3434299 14.7644208,18.2803314 14.4823645,18.3105476 C13.7343022,18.3905316 13.1842048,19.067729 13.2621644,19.8302426 L14.0128547,27.191432 C14.0864346,27.9521683 14.7582892,28.5085011 15.5133591,28.4320719 C15.8523522,28.3965235 16.9148811,28.4036332 16.9148811,30.2032721 C16.9148811,32.6801083 18.1622356,35.5559756 19.7459555,36.5877686 C19.9833383,38.3029799 20.2251008,43.5010479 20.4598557,45.219814 L27.7793042,51.8060479 L36.423191,45.219814 Z" id="Stroke-9" stroke="#0074F2" stroke-width="2" stroke-linecap="round" stroke-linejoin="round"></path>
                    <path d="M27.779567,51.8057812 L27.779567,65.0520118" id="Stroke-11" stroke="#0074F2" stroke-width="2" stroke-linecap="round" stroke-linejoin="round"></path>
                    <polyline id="Stroke-13" stroke="#0074F2" stroke-width="2" stroke-linecap="round" stroke-linejoin="round" points="-0.000175190247 65.0517452 2.18094338 51.8055146 9.16840636 46.0591123 20.4594178 45.2201695"></polyline>
                    <path d="M43.2395807,45.7262013 L36.4229282,45.2196363" id="Stroke-15" stroke="#0074F2" stroke-width="2" stroke-linecap="round" stroke-linejoin="round"></path>
                    <polyline id="Stroke-17" stroke="#0074F2" stroke-width="2" stroke-linecap="round" stroke-linejoin="round" points="9.16823117 46.0591123 20.2113484 60.8054863 27.779567 57.2506441 36.3796562 60.8054863"></polyline>
                    <path d="M87.0688518,46.6549038 C86.2480855,33.7712671 84.5846541,25.5240333 83.3977402,17.5060868 C81.6992707,7.85557907 74.4446426,1.89499748 67.2250525,1.89499748 C60.0054625,1.89499748 52.7508344,7.85557907 51.0532409,17.5060868 C49.5439769,27.6995967 48.033837,37.0959333 46.524573,47.2885544 C52.1008786,44.5575469 59.8863331,43.7648171 59.8863331,43.2795812 L59.8863331,36.3343083 C61.8913855,37.981089 64.4456593,38.9720012 67.2250525,38.9720012 C70.0097015,38.9720012 72.5552158,37.981089 74.5602682,36.3343083 C74.5602682,36.3343083 74.4490224,41.3910713 74.4490224,43.842135 C76.1947932,44.0740884 86.7465017,46.5571457 87.0688518,46.6549038 Z" id="Stroke-19" stroke="#0074F2" stroke-width="2" stroke-linecap="round" stroke-linejoin="round"></path>
                    <path d="M55.5534403,19.2120556 L55.5534403,27.1295778 C55.5534403,33.6704874 60.7802414,38.9716457 67.2246146,38.9716457 C73.6707397,38.9716457 78.8975407,33.6704874 78.8975407,27.1295778 L78.8975407,19.2120556 C75.0074413,19.2120556 70.1546714,17.8709914 67.2254905,11.6873434 C63.0375677,15.5194633 59.7527506,17.1857955 55.5534403,19.2120556 Z" id="Stroke-21" stroke="#0074F2" stroke-width="2" stroke-linecap="round" stroke-linejoin="round"></path>
                    <path d="M50.7108316,46.4479231 C50.7108316,62.3469547 84.094209,62.2962982 84.094209,46.4363699 C93.5728773,46.4363699 98.3906091,65.0521896 98.3906091,65.0521896 L38.63234,65.4210045 C38.63234,65.4210045 40.841489,46.4479231 50.7108316,46.4479231 Z" id="Stroke-23" stroke="#0074F2" stroke-width="2" stroke-linecap="round" stroke-linejoin="round"></path>
                    <path d="M11.685715,62.109669 L11.0348832,65.4210045" id="Stroke-25" stroke="#0074F2" stroke-width="2" stroke-linecap="round" stroke-linejoin="round"></path>
                    <path d="M16.0025779,19.1469131 C15.9526487,19.3993069 15.9141068,19.6525894 15.9088511,19.9049832 C15.8939599,20.2693545 15.8799447,20.630171 15.8711852,20.9980972 C15.7616913,23.3060784 17.6695131,25.2825707 20.1037816,25.3243401 C20.7178234,25.3163417 21.3266095,25.3083433 21.9310158,25.3012336 C24.3652843,25.1830351 26.2660985,23.2500897 26.1688679,21.0425327 C26.1592324,20.6932694 26.1434653,20.3413401 26.1329539,19.994743 C26.1259463,19.7565685 26.077769,19.509507 26.0339714,19.2651116 C22.7789366,18.0662411 19.2558608,18.0191394 16.0025779,19.1469131 Z" id="Stroke-1" stroke="#FF0571" stroke-width="2" stroke-linecap="round" stroke-linejoin="round"></path>
                    <path d="M31.3676385,19.1469131 C31.3194611,19.3993069 31.2835471,19.6543668 31.2712838,19.9049832 C31.2616484,20.2693545 31.2485091,20.630171 31.2309901,20.9980972 C31.1337595,23.3060784 33.0345737,25.2825707 35.4688421,25.3243401 C36.0802561,25.3163417 36.6942979,25.3083433 37.3004562,25.3012336 C39.7268411,25.1901448 41.6364148,23.2500897 41.5286728,21.0425327 C41.5216651,20.6932694 41.5129056,20.3413401 41.4980145,19.994743 C41.4910069,19.7565685 41.4472093,19.5121731 41.4042877,19.2651116 C38.1439972,18.0662411 34.6235492,18.0191394 31.3676385,19.1469131 Z" id="Stroke-3" stroke="#FF0571" stroke-width="2" stroke-linecap="round" stroke-linejoin="round"></path>
                    <path d="M26.7282503,21.2654213 L31.2481587,21.2654213" id="Stroke-5" stroke="#FF0571" stroke-width="2" stroke-linecap="round" stroke-linejoin="round"></path>
                </g>
                <ellipse id="icon_2-copy" stroke="#0074F2" opacity="0.300000012" cx="98.3915659" cy="12.7137171" rx="4.36687453" ry="4.38430533"></ellipse>
                <ellipse id="icon_2-copy-2" stroke="#0074F2" opacity="0.300000012" cx="60.1481481" cy="97.8705882" rx="3.45679012" ry="3.47058824"></ellipse>
                <ellipse id="icon_2-copy-5" stroke="#0074F2" opacity="0.100000001" cx="20.7407407" cy="23.6" rx="1.38271605" ry="1.38823529"></ellipse>
            </g>
            <g id="icon_2" transform="translate(126.000000, 1.000000)">
                <path d="M81.1124063,55.4619248 C92.0924773,55.4619248 101.188953,64.1303306 101.188953,74.5936924 C101.188953,85.0559442 92.0924773,93.72546 81.1124063,93.72546 C70.1323352,93.72546 61.03586,85.0559442 61.03586,74.5936924 C61.03586,64.1303306 70.1323352,55.4619248 81.1124063,55.4619248 Z M33.4284248,19.9879534 C44.4084959,19.9879534 53.5061359,28.6563592 53.5061359,39.119721 C53.5061359,49.5819728 44.4084959,58.2514886 33.4284248,58.2514886 C22.4506835,58.2514886 13.3518786,49.5819728 13.3518786,39.119721 C13.3518786,28.6563592 22.4506835,19.9879534 33.4284248,19.9879534 Z" id="Page-1" stroke="#0074F2" stroke-width="2" stroke-linecap="round" stroke-linejoin="round"></path>
                <path d="M80.9510097,83.2470588 C85.9959044,83.2470588 89.8961484,79.5315731 89.8961484,74.7228678 C89.8961484,69.9141624 85.9959044,66.1986767 80.9510097,66.1986767 C75.9048374,66.1986767 72.0058709,69.9141624 72.0058709,74.7228678 C72.0058709,79.5315731 75.9048374,83.2470588 80.9510097,83.2470588 Z" id="Path" stroke="#0074F2" stroke-width="2" stroke-linecap="round" stroke-linejoin="round"></path>
                <path d="M33.1220573,48.2712522 C38.6749591,48.2712522 42.962963,44.1850368 42.962963,38.8947873 C42.962963,33.6045378 38.6749591,29.5169831 33.1220573,29.5169831 C27.5719664,29.5169831 23.2811516,33.6045378 23.2811516,38.8947873 C23.2811516,44.1850368 27.5719664,48.2712522 33.1220573,48.2712522 Z" id="Path" stroke="#0074F2" stroke-width="2" stroke-linecap="round" stroke-linejoin="round"></path>
                <ellipse id="icon_2-copy" stroke="#0074F2" stroke-width="1" opacity="0.300000012" cx="99.4588113" cy="30.6372202" rx="4.9402928" ry="4.70780843"></ellipse>
                <ellipse id="icon_2-copy-2" stroke="#0074F2" stroke-width="1" opacity="0.300000012" filter="url(#filter-1)" cx="17.8291817" cy="26.5431025" rx="4.9402928" ry="4.70780843"></ellipse>
                <ellipse id="icon_2-copy-5" stroke="#0074F2" stroke-width="1" opacity="0.100000001" cx="24.3018508" cy="64.7080082" rx="1.56428175" ry="1.49066849"></ellipse>
                <ellipse id="icon_2-copy-6" stroke="#0074F2" stroke-width="1" opacity="0.200000003" cx="102.515938" cy="94.5213781" rx="1.56428175" ry="1.49066849"></ellipse>
                <path d="M75.7589703,20.8287642 C76.0585958,20.3643972 76.7476953,19.9879534 77.3018653,19.9879534 L82.8195125,19.9879534 C84.4751553,19.9879534 85.0890214,21.1166867 84.1933411,22.5048338 L38.7818608,92.8846492 C38.4822352,93.3490162 37.7931358,93.72546 37.2389658,93.72546 L31.7213186,93.72546 C30.0656758,93.72546 29.4518097,92.5967268 30.34749,91.2085796 L75.7589703,20.8287642 Z" id="Path" stroke="#FF0571" stroke-width="2" stroke-linecap="round" stroke-linejoin="round"></path>
            </g>
            <g id="icon_3" transform="translate(250.000000, 2.000000)">
                <g id="Page-1" fill-rule="evenodd" transform="translate(13.529412, 21.647059)" stroke-linecap="round" stroke-linejoin="round">
                    <path d="M83.1900379,25.6362968 L83.1900379,2.29432572 C83.1900379,1.02932572 82.1681163,-0.000222124671 80.9124867,-0.000222124671 L2.32484401,-0.000222124671 C1.07031678,-0.000222124671 0.048395207,1.02932572 0.048395207,2.29432572 L0.048395207,51.289475 L65.9121773,51.289475" id="Stroke-1" stroke="#0074F2" stroke-width="2"></path>
                    <polyline id="Stroke-3" stroke="#0074F2" stroke-width="2" points="65.9187917 45.4013942 5.74117081 45.4013942 5.74117081 5.8387691 77.4145826 5.8387691 77.4145826 25.4057313"></polyline>
                    <path d="M65.6872885,51.241385 L-0.000110239652,51.241385 L-0.000110239652,58.3082814 C-0.000110239652,59.6621313 1.3789878,61.1692471 2.72280915,61.1692471 L65.6872885,61.1692471" id="Stroke-5" stroke="#0074F2" stroke-width="2"></path>
                    <path d="M54.6418266,72.1398736 C53.9010161,71.8166822 53.0113821,71.4090834 52.4844366,71.1203213 C51.5661403,70.6049921 51.3853473,70.5461291 51.0436044,68.7991185 C50.6676871,66.889957 50.9752558,63.0794083 50.834149,61.3224021 L32.3866458,61.2268885 C32.2433342,62.9838946 32.5531076,66.889957 32.1771904,68.7991185 C31.8332427,70.5461291 31.5940227,70.6049921 30.6735216,71.1203213 C30.1531904,71.4090834 29.2756828,71.8066866 28.5414867,72.1265461" id="Stroke-7" stroke="#0074F2" stroke-width="2"></path>
                    <path d="M25.2910706,72.5471392 L57.9782296,72.5471392" id="Stroke-9" stroke="#0074F2" stroke-width="2"></path>
                    <path d="M88.8968139,69.8958591 C88.8968139,70.6977291 88.251912,71.3474438 87.4570841,71.3474438 L67.2854327,71.3474438 C66.4884,71.3474438 65.843498,70.6977291 65.843498,69.8958591 L65.843498,27.0724438 C65.843498,26.2694631 66.4884,25.6208591 67.2854327,25.6208591 L87.4570841,25.6208591 C88.251912,25.6208591 88.8968139,26.2694631 88.8968139,27.0724438 L88.8968139,69.8958591 Z" id="Stroke-11" stroke="#0074F2" stroke-width="2"></path>
                    <path d="M88.3865146,61.2478793 L66.3540179,61.2478793" id="Stroke-13" stroke="#0074F2" stroke-width="2"></path>
                    <path d="M66.3536871,29.9350755 L88.3861839,29.9350755" id="Stroke-15" stroke="#0074F2" stroke-width="2"></path>
                    <path d="M76.0373586,66.5531049 L78.7029534,66.5531049" id="Stroke-17" stroke="#0074F2" stroke-width="2"></path>
                    <polyline id="Stroke-19" stroke="#FF0571" stroke-width="2" points="62.8700039 18.9221343 56.3890148 12.3983327 49.9113329 18.9221343"></polyline>
                    <path d="M56.3885739,14.1705544 L56.391881,41.4596809" id="Stroke-21" stroke="#FF0571" stroke-width="2"></path>
                    <polyline id="Stroke-23" stroke="#FF0571" stroke-width="2" points="70.8913717 39.6031629 77.3712584 46.1269644 83.8511451 39.6031629"></polyline>
                    <path d="M77.3712584,44.3526326 L77.3690536,17.0657274" id="Stroke-25" stroke="#FF0571" stroke-width="2"></path>
                </g>
                <ellipse id="icon_2-copy-3" stroke="#0074F2" opacity="0.300000012" cx="20.902518" cy="96.6672239" rx="4.66722387" ry="4.66722387"></ellipse>
                <circle id="icon_2-copy-4" stroke="#0074F2" opacity="0.300000012" cx="101.402518" cy="13.4613415" r="2.63781211"></circle>
            </g>
            <g id="icon_4" transform="translate(374.000000, 8.000000)">
                <g id="Page-1" fill-rule="evenodd" transform="translate(8.400000, 18.000000)" stroke-linecap="round" stroke-linejoin="round">
                    <g id="Group-4" transform="translate(0.000000, 0.428571)" stroke-width="2" stroke="#0074F2">
                        <polygon id="Stroke-1" points="0 65.1428571 84.769697 65.1428571 84.769697 0.428571429 0 0.428571429"></polygon>
                        <polygon id="Stroke-3" points="0 8.57142857 84.769697 8.57142857 84.769697 0.428571429 0 0.428571429"></polygon>
                    </g>
                    <path d="M3.01229333,4.85734286 L5.29289939,4.85734286" id="Stroke-5" stroke="#0074F2" stroke-width="2"></path>
                    <path d="M8.30536485,4.85734286 L10.2770133,4.85734286" id="Stroke-6" stroke="#0074F2" stroke-width="2"></path>
                    <path d="M12.9672679,4.85734286 L14.8821164,4.85734286" id="Stroke-7" stroke="#0074F2" stroke-width="2"></path>
                    <path d="M14.860343,16.1454 L22.5533006,16.1454" id="Stroke-8" stroke="#0074F2" stroke-width="2"></path>
                    <path d="M32.5801358,16.1454 L48.3180388,16.1454" id="Stroke-9" stroke="#0074F2" stroke-width="2"></path>
                    <path d="M25.5851297,16.1454 L28.38296,16.1454" id="Stroke-10" stroke="#0074F2" stroke-width="2"></path>
                    <path d="M17.4253794,28.2458571 L25.3524218,28.2458571" id="Stroke-11" stroke="#0074F2" stroke-width="2"></path>
                    <path d="M36.3100024,28.2458571 L48.3180388,28.2458571" id="Stroke-12" stroke="#FF0571" stroke-width="2"></path>
                    <path d="M28.38296,28.2458571 L32.1145479,28.2458571" id="Stroke-13" stroke="#FF0571" stroke-width="2"></path>
                    <path d="M48.7837127,40.3454571 L72.2033855,40.3454571" id="Stroke-14" stroke="#FF0571" stroke-width="2"></path>
                    <path d="M28.0333818,40.3454571 L45.8694424,40.3454571" id="Stroke-15" stroke="#0074F2" stroke-width="2"></path>
                    <path d="M62.3083952,28.2458571 L74.3164315,28.2458571" id="Stroke-16" stroke="#0074F2" stroke-width="2"></path>
                    <path d="M51.6983273,28.2458571 L58.110703,28.2458571" id="Stroke-17" stroke="#0074F2" stroke-width="2"></path>
                    <path d="M21.6208339,34.2960857 L26.2853188,34.2960857" id="Stroke-18" stroke="#0074F2" stroke-width="2"></path>
                    <path d="M29.8411709,34.2960857 L46.2133406,34.2960857" id="Stroke-19" stroke="#0074F2" stroke-width="2"></path>
                    <path d="M59.3933503,16.1454 L75.1312533,16.1454" id="Stroke-20" stroke="#0074F2" stroke-width="2"></path>
                    <path d="M51.5827479,16.1454 L55.1981539,16.1454" id="Stroke-21" stroke="#0074F2" stroke-width="2"></path>
                    <path d="M14.860343,22.1956286 L45.86884,22.1956286" id="Stroke-22" stroke="#0074F2" stroke-width="2"></path>
                    <path d="M14.860343,46.4961429 L57.5274703,46.4961429" id="Stroke-23" stroke="#FF0571" stroke-width="2"></path>
                    <path d="M14.860343,52.5459429 L64.2780642,52.5459429" id="Stroke-24" stroke="#0074F2" stroke-width="2"></path>
                    <path d="M14.860343,58.5957429 L36.3100885,58.5957429" id="Stroke-25" stroke="#FF0571" stroke-width="2"></path>
                    <path d="M5.80590667,16.1454 L8.99703394,16.1454" id="Stroke-26" stroke="#0074F2" stroke-width="2"></path>
                    <path d="M5.80590667,22.1956286 L8.99703394,22.1956286" id="Stroke-27" stroke="#0074F2" stroke-width="2"></path>
                    <path d="M5.80590667,28.2458571 L8.99703394,28.2458571" id="Stroke-28" stroke="#0074F2" stroke-width="2"></path>
                    <path d="M5.80590667,34.2960857 L8.99703394,34.2960857" id="Stroke-29" stroke="#0074F2" stroke-width="2"></path>
                    <path d="M5.80590667,40.3454571 L8.99703394,40.3454571" id="Stroke-30" stroke="#0074F2" stroke-width="2"></path>
                    <path d="M5.80590667,46.3948286 L8.99703394,46.3948286" id="Stroke-31" stroke="#0074F2" stroke-width="2"></path>
                    <path d="M5.80590667,52.4450571 L8.99703394,52.4450571" id="Stroke-32" stroke="#0074F2" stroke-width="2"></path>
                    <path d="M5.80590667,58.4961429 L8.99703394,58.4961429" id="Stroke-33" stroke="#0074F2" stroke-width="2"></path>
                </g>
                <ellipse id="icon_2-copy-5" stroke="#0074F2" opacity="0.300000012" cx="26.3396247" cy="13.1396247" rx="2.33962465" ry="2.33962465"></ellipse>
                <circle id="icon_2-copy-3" stroke="#0074F2" opacity="0.100000001" filter="url(#filter-2)" cx="90.6" cy="85.8" r="3"></circle>
                <ellipse id="icon_2-copy-4" stroke="#0074F2" opacity="0.100000001" filter="url(#filter-3)" cx="26.4" cy="90" rx="4.8" ry="4.8"></ellipse>
            </g>
        </g>
    </g>
</svg>